<?xml version="1.0" encoding="UTF-8"?>
<svg width="29px" height="18px" viewBox="0 0 29 18" version="1.1" xmlns="http://www.w3.org/2000/svg" xmlns:xlink="http://www.w3.org/1999/xlink">
    <!-- Generator: Sketch 54.1 (76490) - https://sketchapp.com -->
    <title>logo</title>
    <desc>Created with Sketch.</desc>
    <g id="Page-1" stroke="none" stroke-width="1" fill="none" fill-rule="evenodd">
        <g id="01-tab-默认状态（有分组）" transform="translate(-20.000000, -19.000000)" fill="#666666">
            <g id="logo" transform="translate(20.000000, 19.000000)">
                <polygon id="矩形" transform="translate(11.157483, 4.743203) rotate(-45.000000) translate(-11.157483, -4.743203) " points="10.1236512 0.0329181012 12.3532168 -0.00524481246 12.191314 9.45348737 9.96174844 9.49165028"></polygon>
                <path d="M13.6695853,8.9465353 C13.3561709,8.62222942 13.2624035,8.13448271 13.432008,7.71073726 C13.6016124,7.28699181 14.0011868,7.01070001 14.4444048,7.01070001 C14.8876228,7.01070001 15.2871972,7.28699181 15.4568017,7.71073726 C15.6264061,8.13448271 15.5326387,8.62222942 15.2192243,8.9465353 C14.7912938,9.38933692 14.0975158,9.38933692 13.6695853,8.9465353 L13.6695853,8.9465353 Z" id="路径"></path>
                <path d="M7.09577919,2.14355774 C6.6679304,1.70079312 6.66793771,0.982942345 7.09579552,0.540187054 C7.52365334,0.0974317638 8.21734313,0.0974317638 8.64520094,0.540187054 C9.07305875,0.982942345 9.07306606,1.70079312 8.64521727,2.14355774 C8.43975126,2.35618679 8.16107564,2.47564111 7.87049823,2.47564111 C7.57992082,2.47564111 7.3012452,2.35618679 7.09577919,2.14355774 L7.09577919,2.14355774 Z" id="路径"></path>
                <polygon id="矩形" transform="translate(4.583476, 4.743278) rotate(-45.000000) translate(-4.583476, -4.743278) " points="-0.126809096 3.7094464 9.33192308 3.54754366 9.29376017 5.77710927 -0.16497201 5.93901201"></polygon>
                <path d="M0.521772116,7.34292282 C0.83516271,7.01859235 1.30649314,6.92155908 1.71597642,7.09707078 C2.12545971,7.27258248 2.39245225,7.68607389 2.39245225,8.14472906 C2.39245225,8.60338423 2.12545971,9.01687565 1.71597642,9.19238735 C1.30649314,9.36789905 0.83516271,9.27086578 0.521772116,8.9465353 C0.0940958898,8.50360505 0.0940958898,7.78585308 0.521772116,7.34292282 L0.521772116,7.34292282 Z" id="路径"></path>
                <path d="M7.09577919,0.540153257 C7.52364151,0.0974026326 8.21733131,0.0974101984 8.64518461,0.540170156 C9.07303791,0.982930113 9.07303791,1.70078089 8.64518461,2.14354085 C8.21733131,2.5863008 7.52364151,2.58630837 7.09577919,2.14355774 C6.89030669,1.93093542 6.77487289,1.64255363 6.77487289,1.3418555 C6.77487289,1.04115737 6.89030669,0.752775581 7.09577919,0.540153257 L7.09577919,0.540153257 Z" id="路径"></path>
                <path d="M8.64521727,0.540153257 C8.21735176,0.0973853334 7.5236447,0.0973853334 7.09577919,0.540153257 C6.66791368,0.98292118 6.66791368,1.70078982 7.09577919,2.14355774 L7.87039774,2.94536398 L8.64521727,2.14355774 C8.85068978,1.93093542 8.96612358,1.64255363 8.96612358,1.3418555 C8.96612358,1.04115737 8.85068978,0.752775581 8.64521727,0.540153257 L8.64521727,0.540153257 Z" id="路径"></path>
                <polygon id="矩形" transform="translate(11.157412, 13.360353) rotate(-45.000000) translate(-11.157412, -13.360353) " points="10.1236824 8.65006706 12.3530435 8.61190765 12.1911407 18.0706398 9.96177963 18.1087992"></polygon>
                <path d="M13.6695853,17.5634045 C13.2418182,17.1206095 13.2418855,16.4028122 13.6697356,15.9601031 C14.0975858,15.5173941 14.7912239,15.5173941 15.219074,15.9601031 C15.6469242,16.4028122 15.6469915,17.1206095 15.2192243,17.5634045 C15.0137502,17.7760972 14.7350315,17.8955919 14.4444048,17.8955919 C14.1537781,17.8955919 13.8750595,17.7760972 13.6695853,17.5634045 L13.6695853,17.5634045 Z" id="路径"></path>
                <path d="M7.09577919,10.7606349 C6.6679304,10.3178703 6.66793771,9.60001952 7.09579552,9.15726423 C7.52365334,8.71450894 8.21734313,8.71450894 8.64520094,9.15726423 C9.07305875,9.60001952 9.07306606,10.3178703 8.64521727,10.7606349 C8.21730976,11.2032979 7.5236867,11.2032979 7.09577919,10.7606349 Z" id="路径"></path>
                <polygon id="矩形" transform="translate(4.583476, 13.360355) rotate(-45.000000) translate(-4.583476, -13.360355) " points="-0.126809096 12.3265236 9.33192308 12.1646208 9.29376017 14.3941864 -0.16497201 14.5560892"></polygon>
                <path d="M0.521772116,15.96 C0.949634437,15.5172494 1.64332423,15.5172569 2.07117753,15.9600169 C2.49903083,16.4027769 2.49903083,17.1206276 2.07117753,17.5633876 C1.64332423,18.0061475 0.949634437,18.0061551 0.521772116,17.5634045 C0.0940080155,17.1205931 0.0940080155,16.4028114 0.521772116,15.96 Z" id="路径"></path>
                <path d="M7.09577919,9.15702244 C7.52367085,8.71435633 8.21730896,8.71442598 8.6451176,9.157178 C9.07292623,9.59993003 9.07292623,10.3177273 8.6451176,10.7604794 C8.21730896,11.2032314 7.52367085,11.203301 7.09577919,10.7606349 C6.66799208,10.3177522 6.66799208,9.59990519 7.09577919,9.15702244 Z" id="路径"></path>
                <path d="M8.64521727,9.15702244 C8.21729626,8.71425452 7.52354421,8.71430108 7.0956787,9.15712644 C6.66781319,9.5999518 6.66785818,10.317867 7.09577919,10.7606349 L7.87039774,11.5626492 L8.64521727,10.7610509 C8.85082498,10.5483762 8.96634185,10.2598708 8.96634185,9.95903667 C8.96634185,9.65820255 8.85082498,9.36969716 8.64521727,9.15702244 L8.64521727,9.15702244 Z" id="路径"></path>
                <polygon id="矩形" transform="translate(24.305296, 13.360280) rotate(-45.000000) translate(-24.305296, -13.360280) " points="23.2714643 8.64999528 25.5010299 8.61183236 25.3391272 18.0705645 23.1095616 18.1087275"></polygon>
                <path d="M26.8173984,17.5634045 C26.3896313,17.1206095 26.3896986,16.4028122 26.8175488,15.9601031 C27.2453989,15.5173941 27.939037,15.5173941 28.3668872,15.9601031 C28.7947373,16.4028122 28.7948046,17.1206095 28.3670375,17.5634045 C28.1615633,17.7760972 27.8828446,17.8955919 27.592218,17.8955919 C27.3015913,17.8955919 27.0228726,17.7760972 26.8173984,17.5634045 L26.8173984,17.5634045 Z" id="路径"></path>
                <path d="M20.2435924,10.7606349 C19.8157436,10.3178703 19.8157509,9.60001952 20.2436087,9.15726423 C20.6714665,8.71450894 21.3651563,8.71450894 21.7930141,9.15726423 C22.2208719,9.60001952 22.2208792,10.3178703 21.7930304,10.7606349 C21.3651229,11.2032979 20.6714999,11.2032979 20.2435924,10.7606349 Z" id="路径"></path>
                <polygon id="矩形" transform="translate(17.731218, 13.360281) rotate(-45.000000) translate(-17.731218, -13.360281) " points="13.0209313 12.3265523 22.4796634 12.1646495 22.441504 14.3940107 12.9827718 14.5559134"></polygon>
                <path d="M13.6695853,15.96 C14.0974476,15.5172494 14.7911374,15.5172569 15.2189907,15.9600169 C15.646844,16.4027769 15.646844,17.1206276 15.2189907,17.5633876 C14.7911374,18.0061475 14.0974476,18.0061551 13.6695853,17.5634045 C13.2418212,17.1205931 13.2418212,16.4028114 13.6695853,15.96 L13.6695853,15.96 Z" id="路径"></path>
                <path d="M15.2192243,15.96 L14.4444048,15.1581938 L13.6695853,15.96 C13.2418182,16.402795 13.2418855,17.1205923 13.6697356,17.5633013 C14.0975858,18.0060104 14.7912239,18.0060104 15.219074,17.5633013 C15.6469242,17.1205923 15.6469915,16.402795 15.2192243,15.96 L15.2192243,15.96 Z" id="路径"></path>
                <path d="M20.2435924,9.15702244 C20.671484,8.71435633 21.3651221,8.71442598 21.7929308,9.157178 C22.2207394,9.59993003 22.2207394,10.3177273 21.7929308,10.7604794 C21.3651221,11.2032314 20.671484,11.203301 20.2435924,10.7606349 C19.8156943,10.3177997 19.8156943,9.59985763 20.2435924,9.15702244 L20.2435924,9.15702244 Z" id="路径"></path>
                <path d="M21.7930304,9.15702244 C21.3651094,8.71425458 20.6713574,8.71430117 20.2434919,9.1571265 C19.8156264,9.59995183 19.8156714,10.317867 20.2435924,10.7606349 L21.0182109,11.5626492 L21.7930304,10.7610509 C21.9986381,10.5483762 22.114155,10.2598708 22.114155,9.95903667 C22.114155,9.65820255 21.9986381,9.36969716 21.7930304,9.15702244 L21.7930304,9.15702244 Z" id="路径"></path>
            </g>
        </g>
    </g>
</svg>